# xmcd CD database file
# Copyright (C) 1995-1998 Ti Kan
#
# Track frame offsets:
#	150
#	9757
#	21272
#	32795
#	44537
#	57847
#	73922
#	87687
#	103802
#	115745
#	133612
#	147842
#	161410
#	176947
#	191027
#	204272
#	215132
#	227490
#	237960
#	251220
#	261165
#	270947
#	280752
#	290807
#	303530
#	314220
#	328775
#	340270
#
# Disc length: 4721 seconds
#
# Revision: 2
# Processed by: cddbd v1.4PL0 Copyright (c) Steve Scherf et al.
# Submitted via: CDex 1.30Release
#
DISCID=b7126f1c
DTITLE=Hank Snow - The Singing Ranger Vol. 3 [CD10 of 12)
DYEAR=1992
DGENRE=Country
TTITLE0=Learnin' A New Way Of Life 1967
TTITLE1=Wildflower 1967
TTITLE2=Little Joe 1964
TTITLE3=Put Your Arms Around Me 1964
TTITLE4=The Color Song 1964
TTITLE5=Your Little Band Of Gold 1964
TTITLE6=The Prisoner's Dream 1964
TTITLE7=The Answer To 'Little Blossom' 1964
TTITLE8=There's A Star Spangled Banner Waving Somewhere 1964
TTITLE9=Old Rover 1964
TTITLE10=Mother I Thank You (For The Bible You Gave) 1964
TTITLE11=The Prisoner's Song 1964
TTITLE12=Walking The Last Mile 1964
TTITLE13=Rocking Alone In An Old Rocking Chair 1964
TTITLE14=Lonesome 7-7203 1964
TTITLE15=She Wears My Ring 1964
TTITLE16=White Silver Sands 1964
TTITLE17=Trouble In Mind 1964
TTITLE18=Mary Ann Regrets 1964
TTITLE19=Six Days On The Road 1964
TTITLE20=Bumming Around 1964
TTITLE21=From A Jack To A King 1964
TTITLE22=Gonna Find Me A Bluebird 1964
TTITLE23=Sweet Lies 1964
TTITLE24=In The Misty Moonlight 1964
TTITLE25=Handcuffed To Love 1964
TTITLE26=What More Can I Say? 1970
TTITLE27=I Wish My Heart Could Talk 1978
EXTD=YEAR: 1992 ID3G:   2
EXTT0=
EXTT1=
EXTT2=
EXTT3=
EXTT4=
EXTT5=
EXTT6=
EXTT7=
EXTT8=
EXTT9=
EXTT10=
EXTT11=
EXTT12=
EXTT13=
EXTT14=
EXTT15=
EXTT16=
EXTT17=
EXTT18=
EXTT19=
EXTT20=
EXTT21=
EXTT22=
EXTT23=
EXTT24=
EXTT25=
EXTT26=
EXTT27=
PLAYORDER=
